<svg width="172" height="37" viewBox="0 0 172 37" fill="none" xmlns="http://www.w3.org/2000/svg">
<path d="M0.227273 36V1.09091H21.1591V4.84091H4.45455V16.6364H19.5909V20.3864H4.45455V36H0.227273ZM27.8537 36V9.81818H31.8764V36H27.8537ZM29.8991 5.45455C29.1151 5.45455 28.4389 5.1875 27.8707 4.65341C27.3139 4.11932 27.0355 3.47727 27.0355 2.72727C27.0355 1.97727 27.3139 1.33523 27.8707 0.801135C28.4389 0.267045 29.1151 0 29.8991 0C30.6832 0 31.3537 0.267045 31.9105 0.801135C32.4787 1.33523 32.7628 1.97727 32.7628 2.72727C32.7628 3.47727 32.4787 4.11932 31.9105 4.65341C31.3537 5.1875 30.6832 5.45455 29.8991 5.45455ZM50.6307 9.81818V13.2273H37.0625V9.81818H50.6307ZM41.017 3.54545H45.0398V28.5C45.0398 29.6364 45.2045 30.4886 45.5341 31.0568C45.875 31.6136 46.3068 31.9886 46.8295 32.1818C47.3636 32.3636 47.9261 32.4545 48.517 32.4545C48.9602 32.4545 49.3239 32.4318 49.608 32.3864C49.892 32.3295 50.1193 32.2841 50.2898 32.25L51.108 35.8636C50.8352 35.9659 50.4545 36.0682 49.9659 36.1705C49.4773 36.2841 48.858 36.3409 48.108 36.3409C46.9716 36.3409 45.858 36.0966 44.767 35.608C43.6875 35.1193 42.7898 34.375 42.0739 33.375C41.3693 32.375 41.017 31.1136 41.017 29.5909V3.54545Z" fill="#14FF00"/>
<path d="M55.6591 36V31.6193L73.0795 7.17614H55.625V1.09091H82.3523V5.47159L64.9148 29.9148H82.3864V36H55.6591ZM99.7429 36.5114C97.0952 36.5114 94.8054 35.9489 92.8736 34.8239C90.9531 33.6875 89.4702 32.108 88.4247 30.0852C87.3793 28.0511 86.8565 25.6932 86.8565 23.0114C86.8565 20.3068 87.3793 17.9432 88.4247 15.9205C89.4702 13.8864 90.9531 12.3068 92.8736 11.1818C94.8054 10.0455 97.0952 9.47727 99.7429 9.47727C102.391 9.47727 104.675 10.0455 106.595 11.1818C108.527 12.3068 110.016 13.8864 111.061 15.9205C112.107 17.9432 112.629 20.3068 112.629 23.0114C112.629 25.6932 112.107 28.0511 111.061 30.0852C110.016 32.108 108.527 33.6875 106.595 34.8239C104.675 35.9489 102.391 36.5114 99.7429 36.5114ZM99.777 30.8864C100.982 30.8864 101.987 30.5455 102.794 29.8636C103.601 29.1705 104.209 28.2273 104.618 27.0341C105.038 25.8409 105.249 24.483 105.249 22.9602C105.249 21.4375 105.038 20.0795 104.618 18.8864C104.209 17.6932 103.601 16.75 102.794 16.0568C101.987 15.3636 100.982 15.017 99.777 15.017C98.5611 15.017 97.5384 15.3636 96.7088 16.0568C95.8906 16.75 95.2713 17.6932 94.8509 18.8864C94.4418 20.0795 94.2372 21.4375 94.2372 22.9602C94.2372 24.483 94.4418 25.8409 94.8509 27.0341C95.2713 28.2273 95.8906 29.1705 96.7088 29.8636C97.5384 30.5455 98.5611 30.8864 99.777 30.8864ZM124.612 20.8636V36H117.351V9.81818H124.271V14.4375H124.578C125.158 12.9148 126.129 11.7102 127.493 10.8239C128.857 9.92614 130.51 9.47727 132.453 9.47727C134.271 9.47727 135.857 9.875 137.209 10.6705C138.561 11.4659 139.612 12.6023 140.362 14.0795C141.112 15.5455 141.487 17.2955 141.487 19.3295V36H134.226V20.625C134.237 19.0227 133.828 17.7727 132.999 16.875C132.169 15.9659 131.027 15.5114 129.572 15.5114C128.595 15.5114 127.732 15.7216 126.982 16.142C126.243 16.5625 125.663 17.1761 125.243 17.983C124.834 18.7784 124.624 19.7386 124.612 20.8636ZM159.142 36.5114C156.449 36.5114 154.131 35.9659 152.188 34.875C150.256 33.7727 148.767 32.2159 147.722 30.2045C146.676 28.1818 146.153 25.7898 146.153 23.0284C146.153 20.3352 146.676 17.9716 147.722 15.9375C148.767 13.9034 150.239 12.3182 152.136 11.1818C154.045 10.0455 156.284 9.47727 158.852 9.47727C160.58 9.47727 162.188 9.75568 163.676 10.3125C165.176 10.858 166.483 11.6818 167.597 12.7841C168.722 13.8864 169.597 15.2727 170.222 16.9432C170.847 18.6023 171.159 20.5455 171.159 22.7727V24.767H149.051V20.267H164.324C164.324 19.2216 164.097 18.2955 163.642 17.4886C163.188 16.6818 162.557 16.0511 161.75 15.5966C160.955 15.1307 160.028 14.8977 158.972 14.8977C157.869 14.8977 156.892 15.1534 156.04 15.6648C155.199 16.1648 154.54 16.8409 154.062 17.6932C153.585 18.5341 153.341 19.4716 153.33 20.5057V24.7841C153.33 26.0795 153.568 27.1989 154.045 28.142C154.534 29.0852 155.222 29.8125 156.108 30.3239C156.994 30.8352 158.045 31.0909 159.261 31.0909C160.068 31.0909 160.807 30.9773 161.477 30.75C162.148 30.5227 162.722 30.1818 163.199 29.7273C163.676 29.2727 164.04 28.7159 164.29 28.0568L171.006 28.5C170.665 30.1136 169.966 31.5227 168.909 32.7273C167.864 33.9205 166.511 34.8523 164.852 35.5227C163.205 36.1818 161.301 36.5114 159.142 36.5114Z" fill="white"/>
</svg>
